<?xml version="1.0" encoding="UTF-8" standalone="no"?><svg xmlns="http://www.w3.org/2000/svg" xmlns:xlink="http://www.w3.org/1999/xlink" contentStyleType="text/css" height="367px" preserveAspectRatio="none" style="width:1465px;height:367px;background:#FFFFFF;" version="1.1" viewBox="0 0 1465 367" width="1465px" zoomAndPan="magnify"><defs/><g><!--MD5=[2578b00f38cf67185560230916dfebe9]
cluster org.patrodyne.jvnet.higherjaxb.ex001.model--><g id="cluster_org.patrodyne.jvnet.higherjaxb.ex001.model"><path d="M8.5,6 L361.5,6 A3.75,3.75 0 0 1 364,8.5 L371,28.2969 L1455.5,28.2969 A2.5,2.5 0 0 1 1458,30.7969 L1458,357.5 A2.5,2.5 0 0 1 1455.5,360 L8.5,360 A2.5,2.5 0 0 1 6,357.5 L6,8.5 A2.5,2.5 0 0 1 8.5,6 " style="stroke:#000000;stroke-width:1.5;fill:none;"/><line style="stroke:#000000;stroke-width:1.5;fill:none;" x1="6" x2="371" y1="28.2969" y2="28.2969"/><text fill="#000000" font-family="sans-serif" font-size="14" font-weight="bold" lengthAdjust="spacing" textLength="352" x="10" y="20.9951">org.patrodyne.jvnet.higherjaxb.ex001.model</text></g><!--MD5=[0db6d45ef1f03cdbd0c35dd0d3021b30]
class org.patrodyne.jvnet.higherjaxb.ex001.model.Action--><g id="elem_org.patrodyne.jvnet.higherjaxb.ex001.model.Action"><rect codeLine="2" fill="#F1F1F1" height="105.1875" id="org.patrodyne.jvnet.higherjaxb.ex001.model.Action" rx="2.5" ry="2.5" style="stroke:#181818;stroke-width:0.5;" width="138" x="561" y="231"/><ellipse cx="604.35" cy="247" fill="#EB937F" rx="11" ry="11" style="stroke:#181818;stroke-width:1.0;"/><path d="M608.4594,253 L600.7406,253 L600.7406,240.6094 L608.4594,240.6094 L608.4594,242.7656 L603.1938,242.7656 L603.1938,245.4375 L607.9594,245.4375 L607.9594,247.5938 L603.1938,247.5938 L603.1938,250.8438 L608.4594,250.8438 L608.4594,253 Z " fill="#000000"/><text fill="#000000" font-family="sans-serif" font-size="14" lengthAdjust="spacing" textLength="43" x="624.65" y="251.8467">Action</text><line style="stroke:#181818;stroke-width:0.5;" x1="562" x2="698" y1="263" y2="263"/><ellipse cx="572" cy="274" fill="none" rx="3" ry="3" style="stroke:#038048;stroke-width:1.0;"/><text fill="#000000" font-family="sans-serif" font-size="14" lengthAdjust="spacing" textLength="29" x="581" y="279.9951">BUY</text><ellipse cx="572" cy="290.2969" fill="none" rx="3" ry="3" style="stroke:#038048;stroke-width:1.0;"/><text fill="#000000" font-family="sans-serif" font-size="14" lengthAdjust="spacing" textLength="112" x="581" y="296.292">BUY_TO_COVER</text><ellipse cx="572" cy="306.5938" fill="none" rx="3" ry="3" style="stroke:#038048;stroke-width:1.0;"/><text fill="#000000" font-family="sans-serif" font-size="14" lengthAdjust="spacing" textLength="32" x="581" y="312.5889">SELL</text><ellipse cx="572" cy="322.8906" fill="none" rx="3" ry="3" style="stroke:#038048;stroke-width:1.0;"/><text fill="#000000" font-family="sans-serif" font-size="14" lengthAdjust="spacing" textLength="88" x="581" y="328.8857">SELL_SHORT</text></g><!--MD5=[0bf37f5727339177eb9fc0a01a476da9]
class org.patrodyne.jvnet.higherjaxb.ex001.model.Bind--><!--MD5=[a8d010855880164f1c6ba98a4e971347]
class org.patrodyne.jvnet.higherjaxb.ex001.model.Completed--><g id="elem_org.patrodyne.jvnet.higherjaxb.ex001.model.Completed"><rect codeLine="14" fill="#F1F1F1" height="56.2969" id="org.patrodyne.jvnet.higherjaxb.ex001.model.Completed" rx="2.5" ry="2.5" style="stroke:#181818;stroke-width:0.5;" width="158" x="181" y="255.5"/><ellipse cx="218.5" cy="271.5" fill="#ADD1B2" rx="11" ry="11" style="stroke:#181818;stroke-width:1.0;"/><path d="M221.4688,277.1406 Q220.8906,277.4375 220.25,277.5781 Q219.6094,277.7344 218.9063,277.7344 Q216.4063,277.7344 215.0781,276.0938 Q213.7656,274.4375 213.7656,271.3125 Q213.7656,268.1875 215.0781,266.5313 Q216.4063,264.875 218.9063,264.875 Q219.6094,264.875 220.25,265.0313 Q220.9063,265.1875 221.4688,265.4844 L221.4688,268.2031 Q220.8438,267.625 220.25,267.3594 Q219.6563,267.0781 219.0313,267.0781 Q217.6875,267.0781 217,268.1563 Q216.3125,269.2188 216.3125,271.3125 Q216.3125,273.4063 217,274.4844 Q217.6875,275.5469 219.0313,275.5469 Q219.6563,275.5469 220.25,275.2813 Q220.8438,275 221.4688,274.4219 L221.4688,277.1406 Z " fill="#000000"/><text fill="#000000" font-family="sans-serif" font-size="14" lengthAdjust="spacing" textLength="76" x="237.5" y="276.3467">Completed</text><line style="stroke:#181818;stroke-width:0.5;" x1="182" x2="338" y1="287.5" y2="287.5"/><ellipse cx="192" cy="298.5" fill="none" rx="3" ry="3" style="stroke:#038048;stroke-width:1.0;"/><text fill="#000000" font-family="sans-serif" font-size="14" lengthAdjust="spacing" textLength="132" x="201" y="304.4951">value : XMLGregCal</text></g><!--MD5=[668252f0df8fef8d85b65ae34f924005]
class org.patrodyne.jvnet.higherjaxb.ex001.model.Duration--><g id="elem_org.patrodyne.jvnet.higherjaxb.ex001.model.Duration"><rect codeLine="19" fill="#F1F1F1" height="88.8906" id="org.patrodyne.jvnet.higherjaxb.ex001.model.Duration" rx="2.5" ry="2.5" style="stroke:#181818;stroke-width:0.5;" width="178" x="734" y="239"/><ellipse cx="789.25" cy="255" fill="#EB937F" rx="11" ry="11" style="stroke:#181818;stroke-width:1.0;"/><path d="M793.3594,261 L785.6406,261 L785.6406,248.6094 L793.3594,248.6094 L793.3594,250.7656 L788.0938,250.7656 L788.0938,253.4375 L792.8594,253.4375 L792.8594,255.5938 L788.0938,255.5938 L788.0938,258.8438 L793.3594,258.8438 L793.3594,261 Z " fill="#000000"/><text fill="#000000" font-family="sans-serif" font-size="14" lengthAdjust="spacing" textLength="59" x="809.75" y="259.8467">Duration</text><line style="stroke:#181818;stroke-width:0.5;" x1="735" x2="911" y1="271" y2="271"/><ellipse cx="745" cy="282" fill="none" rx="3" ry="3" style="stroke:#038048;stroke-width:1.0;"/><text fill="#000000" font-family="sans-serif" font-size="14" lengthAdjust="spacing" textLength="29" x="754" y="287.9951">DAY</text><ellipse cx="745" cy="298.2969" fill="none" rx="3" ry="3" style="stroke:#038048;stroke-width:1.0;"/><text fill="#000000" font-family="sans-serif" font-size="14" lengthAdjust="spacing" textLength="152" x="754" y="304.292">GOOD_TIL_CANCELED</text><ellipse cx="745" cy="314.5938" fill="none" rx="3" ry="3" style="stroke:#038048;stroke-width:1.0;"/><text fill="#000000" font-family="sans-serif" font-size="14" lengthAdjust="spacing" textLength="77" x="754" y="320.5889">IMMEDIATE</text></g><!--MD5=[3c0a375d70fe2189d45a3b366075e75d]
class org.patrodyne.jvnet.higherjaxb.ex001.model.LimitPrice--><g id="elem_org.patrodyne.jvnet.higherjaxb.ex001.model.LimitPrice"><rect codeLine="26" fill="#F1F1F1" height="56.2969" id="org.patrodyne.jvnet.higherjaxb.ex001.model.LimitPrice" rx="2.5" ry="2.5" style="stroke:#181818;stroke-width:0.5;" width="152" x="947" y="255.5"/><ellipse cx="986.75" cy="271.5" fill="#ADD1B2" rx="11" ry="11" style="stroke:#181818;stroke-width:1.0;"/><path d="M989.7188,277.1406 Q989.1406,277.4375 988.5,277.5781 Q987.8594,277.7344 987.1563,277.7344 Q984.6563,277.7344 983.3281,276.0938 Q982.0156,274.4375 982.0156,271.3125 Q982.0156,268.1875 983.3281,266.5313 Q984.6563,264.875 987.1563,264.875 Q987.8594,264.875 988.5,265.0313 Q989.1563,265.1875 989.7188,265.4844 L989.7188,268.2031 Q989.0938,267.625 988.5,267.3594 Q987.9063,267.0781 987.2813,267.0781 Q985.9375,267.0781 985.25,268.1563 Q984.5625,269.2188 984.5625,271.3125 Q984.5625,273.4063 985.25,274.4844 Q985.9375,275.5469 987.2813,275.5469 Q987.9063,275.5469 988.5,275.2813 Q989.0938,275 989.7188,274.4219 L989.7188,277.1406 Z " fill="#000000"/><text fill="#000000" font-family="sans-serif" font-size="14" lengthAdjust="spacing" textLength="65" x="1006.25" y="276.3467">LimitPrice</text><line style="stroke:#181818;stroke-width:0.5;" x1="948" x2="1098" y1="287.5" y2="287.5"/><ellipse cx="958" cy="298.5" fill="none" rx="3" ry="3" style="stroke:#038048;stroke-width:1.0;"/><text fill="#000000" font-family="sans-serif" font-size="14" lengthAdjust="spacing" textLength="126" x="967" y="304.4951">value : BigDecimal</text></g><!--MD5=[f7b1841711eaaa02401eaaf55b05f121]
class org.patrodyne.jvnet.higherjaxb.ex001.model.ObjectFactory--><!--MD5=[9ef193705bb3b5f37fa78d779d38cc34]
class org.patrodyne.jvnet.higherjaxb.ex001.model.Quantity--><g id="elem_org.patrodyne.jvnet.higherjaxb.ex001.model.Quantity"><rect codeLine="35" fill="#F1F1F1" height="56.2969" id="org.patrodyne.jvnet.higherjaxb.ex001.model.Quantity" rx="2.5" ry="2.5" style="stroke:#181818;stroke-width:0.5;" width="124" x="22" y="255.5"/><ellipse cx="52.75" cy="271.5" fill="#ADD1B2" rx="11" ry="11" style="stroke:#181818;stroke-width:1.0;"/><path d="M55.7188,277.1406 Q55.1406,277.4375 54.5,277.5781 Q53.8594,277.7344 53.1563,277.7344 Q50.6563,277.7344 49.3281,276.0938 Q48.0156,274.4375 48.0156,271.3125 Q48.0156,268.1875 49.3281,266.5313 Q50.6563,264.875 53.1563,264.875 Q53.8594,264.875 54.5,265.0313 Q55.1563,265.1875 55.7188,265.4844 L55.7188,268.2031 Q55.0938,267.625 54.5,267.3594 Q53.9063,267.0781 53.2813,267.0781 Q51.9375,267.0781 51.25,268.1563 Q50.5625,269.2188 50.5625,271.3125 Q50.5625,273.4063 51.25,274.4844 Q51.9375,275.5469 53.2813,275.5469 Q53.9063,275.5469 54.5,275.2813 Q55.0938,275 55.7188,274.4219 L55.7188,277.1406 Z " fill="#000000"/><text fill="#000000" font-family="sans-serif" font-size="14" lengthAdjust="spacing" textLength="57" x="70.25" y="276.3467">Quantity</text><line style="stroke:#181818;stroke-width:0.5;" x1="23" x2="145" y1="287.5" y2="287.5"/><ellipse cx="33" cy="298.5" fill="none" rx="3" ry="3" style="stroke:#038048;stroke-width:1.0;"/><text fill="#000000" font-family="sans-serif" font-size="14" lengthAdjust="spacing" textLength="98" x="42" y="304.4951">value : Integer</text></g><!--MD5=[2669ef7eb54fc3bd3dda3997f5642611]
class org.patrodyne.jvnet.higherjaxb.ex001.model.Stage--><g id="elem_org.patrodyne.jvnet.higherjaxb.ex001.model.Stage"><rect codeLine="40" fill="#F1F1F1" height="121.4844" id="org.patrodyne.jvnet.higherjaxb.ex001.model.Stage" rx="2.5" ry="2.5" style="stroke:#181818;stroke-width:0.5;" width="101" x="1134.5" y="223"/><ellipse cx="1162.55" cy="239" fill="#EB937F" rx="11" ry="11" style="stroke:#181818;stroke-width:1.0;"/><path d="M1166.6594,245 L1158.9406,245 L1158.9406,232.6094 L1166.6594,232.6094 L1166.6594,234.7656 L1161.3938,234.7656 L1161.3938,237.4375 L1166.1594,237.4375 L1166.1594,239.5938 L1161.3938,239.5938 L1161.3938,242.8438 L1166.6594,242.8438 L1166.6594,245 Z " fill="#000000"/><text fill="#000000" font-family="sans-serif" font-size="14" lengthAdjust="spacing" textLength="40" x="1179.45" y="243.8467">Stage</text><line style="stroke:#181818;stroke-width:0.5;" x1="1135.5" x2="1234.5" y1="255" y2="255"/><ellipse cx="1145.5" cy="266" fill="none" rx="3" ry="3" style="stroke:#038048;stroke-width:1.0;"/><text fill="#000000" font-family="sans-serif" font-size="14" lengthAdjust="spacing" textLength="49" x="1154.5" y="271.9951">ACTIVE</text><ellipse cx="1145.5" cy="282.2969" fill="none" rx="3" ry="3" style="stroke:#038048;stroke-width:1.0;"/><text fill="#000000" font-family="sans-serif" font-size="14" lengthAdjust="spacing" textLength="75" x="1154.5" y="288.292">CANCELED</text><ellipse cx="1145.5" cy="298.5938" fill="none" rx="3" ry="3" style="stroke:#038048;stroke-width:1.0;"/><text fill="#000000" font-family="sans-serif" font-size="14" lengthAdjust="spacing" textLength="57" x="1154.5" y="304.5889">CLOSED</text><ellipse cx="1145.5" cy="314.8906" fill="none" rx="3" ry="3" style="stroke:#038048;stroke-width:1.0;"/><text fill="#000000" font-family="sans-serif" font-size="14" lengthAdjust="spacing" textLength="39" x="1154.5" y="320.8857">HOLD</text><ellipse cx="1145.5" cy="331.1875" fill="none" rx="3" ry="3" style="stroke:#038048;stroke-width:1.0;"/><text fill="#000000" font-family="sans-serif" font-size="14" lengthAdjust="spacing" textLength="39" x="1154.5" y="337.1826">OPEN</text></g><!--MD5=[f9ae4476edb60bcaeedd75daa5b92cb5]
class org.patrodyne.jvnet.higherjaxb.ex001.model.Stageable--><g id="elem_org.patrodyne.jvnet.higherjaxb.ex001.model.Stageable"><rect codeLine="49" fill="#F1F1F1" height="40" id="org.patrodyne.jvnet.higherjaxb.ex001.model.Stageable" rx="2.5" ry="2.5" style="stroke:#181818;stroke-width:0.5;" width="101" x="1080.5" y="73.5"/><ellipse cx="1095.5" cy="89.5" fill="#ADD1B2" rx="11" ry="11" style="stroke:#181818;stroke-width:1.0;"/><path d="M1098.4688,95.1406 Q1097.8906,95.4375 1097.25,95.5781 Q1096.6094,95.7344 1095.9063,95.7344 Q1093.4063,95.7344 1092.0781,94.0938 Q1090.7656,92.4375 1090.7656,89.3125 Q1090.7656,86.1875 1092.0781,84.5313 Q1093.4063,82.875 1095.9063,82.875 Q1096.6094,82.875 1097.25,83.0313 Q1097.9063,83.1875 1098.4688,83.4844 L1098.4688,86.2031 Q1097.8438,85.625 1097.25,85.3594 Q1096.6563,85.0781 1096.0313,85.0781 Q1094.6875,85.0781 1094,86.1563 Q1093.3125,87.2188 1093.3125,89.3125 Q1093.3125,91.4063 1094,92.4844 Q1094.6875,93.5469 1096.0313,93.5469 Q1096.6563,93.5469 1097.25,93.2813 Q1097.8438,93 1098.4688,92.4219 L1098.4688,95.1406 Z " fill="#000000"/><text fill="#000000" font-family="sans-serif" font-size="14" lengthAdjust="spacing" textLength="69" x="1109.5" y="94.3467">Stageable</text><line style="stroke:#181818;stroke-width:0.5;" x1="1081.5" x2="1180.5" y1="105.5" y2="105.5"/></g><!--MD5=[014677650078e78c973db8bafc9eed29]
class org.patrodyne.jvnet.higherjaxb.ex001.model.StopPrice--><g id="elem_org.patrodyne.jvnet.higherjaxb.ex001.model.StopPrice"><rect codeLine="53" fill="#F1F1F1" height="56.2969" id="org.patrodyne.jvnet.higherjaxb.ex001.model.StopPrice" rx="2.5" ry="2.5" style="stroke:#181818;stroke-width:0.5;" width="152" x="374" y="255.5"/><ellipse cx="413.3" cy="271.5" fill="#ADD1B2" rx="11" ry="11" style="stroke:#181818;stroke-width:1.0;"/><path d="M416.2688,277.1406 Q415.6906,277.4375 415.05,277.5781 Q414.4094,277.7344 413.7063,277.7344 Q411.2063,277.7344 409.8781,276.0938 Q408.5656,274.4375 408.5656,271.3125 Q408.5656,268.1875 409.8781,266.5313 Q411.2063,264.875 413.7063,264.875 Q414.4094,264.875 415.05,265.0313 Q415.7063,265.1875 416.2688,265.4844 L416.2688,268.2031 Q415.6438,267.625 415.05,267.3594 Q414.4563,267.0781 413.8313,267.0781 Q412.4875,267.0781 411.8,268.1563 Q411.1125,269.2188 411.1125,271.3125 Q411.1125,273.4063 411.8,274.4844 Q412.4875,275.5469 413.8313,275.5469 Q414.4563,275.5469 415.05,275.2813 Q415.6438,275 416.2688,274.4219 L416.2688,277.1406 Z " fill="#000000"/><text fill="#000000" font-family="sans-serif" font-size="14" lengthAdjust="spacing" textLength="66" x="432.7" y="276.3467">StopPrice</text><line style="stroke:#181818;stroke-width:0.5;" x1="375" x2="525" y1="287.5" y2="287.5"/><ellipse cx="385" cy="298.5" fill="none" rx="3" ry="3" style="stroke:#038048;stroke-width:1.0;"/><text fill="#000000" font-family="sans-serif" font-size="14" lengthAdjust="spacing" textLength="126" x="394" y="304.4951">value : BigDecimal</text></g><!--MD5=[3fb617e103eb7346f9431b6c894e4ff6]
class org.patrodyne.jvnet.higherjaxb.ex001.model.Trade--><g id="elem_org.patrodyne.jvnet.higherjaxb.ex001.model.Trade"><rect codeLine="58" fill="#F1F1F1" height="88.8906" id="org.patrodyne.jvnet.higherjaxb.ex001.model.Trade" rx="2.5" ry="2.5" style="stroke:#181818;stroke-width:0.5;" width="175" x="473.5" y="49"/><ellipse cx="536.75" cy="65" fill="#ADD1B2" rx="11" ry="11" style="stroke:#181818;stroke-width:1.0;"/><path d="M539.7188,70.6406 Q539.1406,70.9375 538.5,71.0781 Q537.8594,71.2344 537.1563,71.2344 Q534.6563,71.2344 533.3281,69.5938 Q532.0156,67.9375 532.0156,64.8125 Q532.0156,61.6875 533.3281,60.0313 Q534.6563,58.375 537.1563,58.375 Q537.8594,58.375 538.5,58.5313 Q539.1563,58.6875 539.7188,58.9844 L539.7188,61.7031 Q539.0938,61.125 538.5,60.8594 Q537.9063,60.5781 537.2813,60.5781 Q535.9375,60.5781 535.25,61.6563 Q534.5625,62.7188 534.5625,64.8125 Q534.5625,66.9063 535.25,67.9844 Q535.9375,69.0469 537.2813,69.0469 Q537.9063,69.0469 538.5,68.7813 Q539.0938,68.5 539.7188,67.9219 L539.7188,70.6406 Z " fill="#000000"/><text fill="#000000" font-family="sans-serif" font-size="14" lengthAdjust="spacing" textLength="40" x="557.25" y="69.8467">Trade</text><line style="stroke:#181818;stroke-width:0.5;" x1="474.5" x2="647.5" y1="81" y2="81"/><ellipse cx="484.5" cy="92" fill="none" rx="3" ry="3" style="stroke:#038048;stroke-width:1.0;"/><text fill="#000000" font-family="sans-serif" font-size="14" lengthAdjust="spacing" textLength="118" x="493.5" y="97.9951">account : Integer</text><ellipse cx="484.5" cy="108.2969" fill="none" rx="3" ry="3" style="stroke:#038048;stroke-width:1.0;"/><text fill="#000000" font-family="sans-serif" font-size="14" lengthAdjust="spacing" textLength="149" x="493.5" y="114.292">created : XMLGregCal</text><ellipse cx="484.5" cy="124.5938" fill="none" rx="3" ry="3" style="stroke:#038048;stroke-width:1.0;"/><text fill="#000000" font-family="sans-serif" font-size="14" lengthAdjust="spacing" textLength="102" x="493.5" y="130.5889">symbol : String</text></g><!--MD5=[38de136cd963dbdb65d6b96b4fcdb8ba]
class org.patrodyne.jvnet.higherjaxb.ex001.model.TransactionBatch--><g id="elem_org.patrodyne.jvnet.higherjaxb.ex001.model.TransactionBatch"><rect codeLine="65" fill="#F1F1F1" height="56.2969" id="org.patrodyne.jvnet.higherjaxb.ex001.model.TransactionBatch" rx="2.5" ry="2.5" style="stroke:#181818;stroke-width:0.5;" width="171" x="1270.5" y="255.5"/><ellipse cx="1293.6" cy="271.5" fill="#ADD1B2" rx="11" ry="11" style="stroke:#181818;stroke-width:1.0;"/><path d="M1296.5688,277.1406 Q1295.9906,277.4375 1295.35,277.5781 Q1294.7094,277.7344 1294.0063,277.7344 Q1291.5063,277.7344 1290.1781,276.0938 Q1288.8656,274.4375 1288.8656,271.3125 Q1288.8656,268.1875 1290.1781,266.5313 Q1291.5063,264.875 1294.0063,264.875 Q1294.7094,264.875 1295.35,265.0313 Q1296.0063,265.1875 1296.5688,265.4844 L1296.5688,268.2031 Q1295.9438,267.625 1295.35,267.3594 Q1294.7563,267.0781 1294.1313,267.0781 Q1292.7875,267.0781 1292.1,268.1563 Q1291.4125,269.2188 1291.4125,271.3125 Q1291.4125,273.4063 1292.1,274.4844 Q1292.7875,275.5469 1294.1313,275.5469 Q1294.7563,275.5469 1295.35,275.2813 Q1295.9438,275 1296.5688,274.4219 L1296.5688,277.1406 Z " fill="#000000"/><text fill="#000000" font-family="sans-serif" font-size="14" lengthAdjust="spacing" textLength="121" x="1309.4" y="276.3467">TransactionBatch</text><line style="stroke:#181818;stroke-width:0.5;" x1="1271.5" x2="1440.5" y1="287.5" y2="287.5"/><polygon fill="none" points="1281.5,293.5,1285.5,297.5,1281.5,301.5,1277.5,297.5" style="stroke:#B38D22;stroke-width:1.0;"/><text fill="#000000" font-family="sans-serif" font-size="14" lengthAdjust="spacing" textLength="145" x="1290.5" y="304.4951">tradeOrTransfer : List</text></g><!--MD5=[2bebaac9ac5f026d48e59631997dee1a]
class org.patrodyne.jvnet.higherjaxb.ex001.model.Transfer--><g id="elem_org.patrodyne.jvnet.higherjaxb.ex001.model.Transfer"><rect codeLine="70" fill="#F1F1F1" height="105.1875" id="org.patrodyne.jvnet.higherjaxb.ex001.model.Transfer" rx="2.5" ry="2.5" style="stroke:#181818;stroke-width:0.5;" width="175" x="57.5" y="41"/><ellipse cx="112.25" cy="57" fill="#ADD1B2" rx="11" ry="11" style="stroke:#181818;stroke-width:1.0;"/><path d="M115.2188,62.6406 Q114.6406,62.9375 114,63.0781 Q113.3594,63.2344 112.6563,63.2344 Q110.1563,63.2344 108.8281,61.5938 Q107.5156,59.9375 107.5156,56.8125 Q107.5156,53.6875 108.8281,52.0313 Q110.1563,50.375 112.6563,50.375 Q113.3594,50.375 114,50.5313 Q114.6563,50.6875 115.2188,50.9844 L115.2188,53.7031 Q114.5938,53.125 114,52.8594 Q113.4063,52.5781 112.7813,52.5781 Q111.4375,52.5781 110.75,53.6563 Q110.0625,54.7188 110.0625,56.8125 Q110.0625,58.9063 110.75,59.9844 Q111.4375,61.0469 112.7813,61.0469 Q113.4063,61.0469 114,60.7813 Q114.5938,60.5 115.2188,59.9219 L115.2188,62.6406 Z " fill="#000000"/><text fill="#000000" font-family="sans-serif" font-size="14" lengthAdjust="spacing" textLength="57" x="132.75" y="61.8467">Transfer</text><line style="stroke:#181818;stroke-width:0.5;" x1="58.5" x2="231.5" y1="73" y2="73"/><ellipse cx="68.5" cy="84" fill="none" rx="3" ry="3" style="stroke:#038048;stroke-width:1.0;"/><text fill="#000000" font-family="sans-serif" font-size="14" lengthAdjust="spacing" textLength="109" x="77.5" y="89.9951">account : String</text><ellipse cx="68.5" cy="100.2969" fill="none" rx="3" ry="3" style="stroke:#038048;stroke-width:1.0;"/><text fill="#000000" font-family="sans-serif" font-size="14" lengthAdjust="spacing" textLength="149" x="77.5" y="106.292">created : XMLGregCal</text><ellipse cx="68.5" cy="116.5938" fill="none" rx="3" ry="3" style="stroke:#038048;stroke-width:1.0;"/><text fill="#000000" font-family="sans-serif" font-size="14" lengthAdjust="spacing" textLength="102" x="77.5" y="122.5889">symbol : String</text><ellipse cx="68.5" cy="132.8906" fill="none" rx="3" ry="3" style="stroke:#038048;stroke-width:1.0;"/><text fill="#000000" font-family="sans-serif" font-size="14" lengthAdjust="spacing" textLength="124" x="77.5" y="138.8857">toAccount : String</text></g><!--MD5=[fd617ad348d4def98bd2e86e2a25b34d]
link org.patrodyne.jvnet.higherjaxb.ex001.model.Stageable to org.patrodyne.jvnet.higherjaxb.ex001.model.Stage--><g id="link_org.patrodyne.jvnet.higherjaxb.ex001.model.Stageable_org.patrodyne.jvnet.higherjaxb.ex001.model.Stage"><path codeLine="80" d="M1136.47,113.56 C1143.45,137.86 1155.88,181.12 1166.41,217.78 " fill="none" id="org.patrodyne.jvnet.higherjaxb.ex001.model.Stageable-to-org.patrodyne.jvnet.higherjaxb.ex001.model.Stage" style="stroke:#181818;stroke-width:1.0;"/><polygon fill="#181818" points="1167.82,222.68,1169.2013,212.9285,1166.4502,217.8713,1161.5073,215.1202,1167.82,222.68" style="stroke:#181818;stroke-width:1.0;"/><text fill="#000000" font-family="sans-serif" font-size="13" lengthAdjust="spacing" textLength="36" x="1159" y="189.0669">stage</text></g><!--MD5=[1ca222903ed05580360ff129338148bd]
link org.patrodyne.jvnet.higherjaxb.ex001.model.Trade to org.patrodyne.jvnet.higherjaxb.ex001.model.Action--><g id="link_org.patrodyne.jvnet.higherjaxb.ex001.model.Trade_org.patrodyne.jvnet.higherjaxb.ex001.model.Action"><path codeLine="81" d="M577,138.1 C586.6,164.25 598.91,197.78 609.25,225.95 " fill="none" id="org.patrodyne.jvnet.higherjaxb.ex001.model.Trade-to-org.patrodyne.jvnet.higherjaxb.ex001.model.Action" style="stroke:#181818;stroke-width:1.0;"/><polygon fill="#181818" points="611.02,230.79,611.6676,220.9625,609.2941,226.0973,604.1593,223.7239,611.02,230.79" style="stroke:#181818;stroke-width:1.0;"/><text fill="#000000" font-family="sans-serif" font-size="13" lengthAdjust="spacing" textLength="39" x="596" y="189.0669">action</text></g><!--MD5=[79ab74499a797836c9be612bdaad00cc]
link org.patrodyne.jvnet.higherjaxb.ex001.model.Trade to org.patrodyne.jvnet.higherjaxb.ex001.model.Completed--><g id="link_org.patrodyne.jvnet.higherjaxb.ex001.model.Trade_org.patrodyne.jvnet.higherjaxb.ex001.model.Completed"><path codeLine="82" d="M488.5,138.21 C468.52,150.36 446.88,163.62 427,176 C386.08,201.49 339.89,231 306.48,252.49 " fill="none" id="org.patrodyne.jvnet.higherjaxb.ex001.model.Trade-to-org.patrodyne.jvnet.higherjaxb.ex001.model.Completed" style="stroke:#181818;stroke-width:1.0;"/><polygon fill="#181818" points="302.05,255.33,311.78,253.8045,306.2494,252.6161,307.4378,247.0855,302.05,255.33" style="stroke:#181818;stroke-width:1.0;"/><text fill="#000000" font-family="sans-serif" font-size="13" lengthAdjust="spacing" textLength="68" x="428" y="189.0669">completed</text></g><!--MD5=[a7be8e9c6038489a5ac03da8773dd2f6]
link org.patrodyne.jvnet.higherjaxb.ex001.model.Trade to org.patrodyne.jvnet.higherjaxb.ex001.model.Duration--><g id="link_org.patrodyne.jvnet.higherjaxb.ex001.model.Trade_org.patrodyne.jvnet.higherjaxb.ex001.model.Duration"><path codeLine="83" d="M621.77,138.1 C662.54,167.36 716.21,205.87 757.86,235.76 " fill="none" id="org.patrodyne.jvnet.higherjaxb.ex001.model.Trade-to-org.patrodyne.jvnet.higherjaxb.ex001.model.Duration" style="stroke:#181818;stroke-width:1.0;"/><polygon fill="#181818" points="762.11,238.81,757.1339,230.3107,758.0491,235.893,752.4667,236.8081,762.11,238.81" style="stroke:#181818;stroke-width:1.0;"/><text fill="#000000" font-family="sans-serif" font-size="13" lengthAdjust="spacing" textLength="53" x="693" y="189.0669">duration</text></g><!--MD5=[d1a87db46ae44edd39bb8ff826c00528]
link org.patrodyne.jvnet.higherjaxb.ex001.model.Trade to org.patrodyne.jvnet.higherjaxb.ex001.model.LimitPrice--><g id="link_org.patrodyne.jvnet.higherjaxb.ex001.model.Trade_org.patrodyne.jvnet.higherjaxb.ex001.model.LimitPrice"><path codeLine="84" d="M648.67,118.7 C724.92,141.22 837.4,178.03 930,223 C947.18,231.34 965.07,242.2 980.52,252.36 " fill="none" id="org.patrodyne.jvnet.higherjaxb.ex001.model.Trade-to-org.patrodyne.jvnet.higherjaxb.ex001.model.LimitPrice" style="stroke:#181818;stroke-width:1.0;"/><polygon fill="#181818" points="984.81,255.2,979.5074,246.9004,980.6388,252.443,975.0962,253.5744,984.81,255.2" style="stroke:#181818;stroke-width:1.0;"/><text fill="#000000" font-family="sans-serif" font-size="13" lengthAdjust="spacing" textLength="58" x="862" y="189.0669">limitPrice</text></g><!--MD5=[f59ee4563f08429b885433bdf6e14dd6]
link org.patrodyne.jvnet.higherjaxb.ex001.model.Trade to org.patrodyne.jvnet.higherjaxb.ex001.model.Quantity--><g id="link_org.patrodyne.jvnet.higherjaxb.ex001.model.Trade_org.patrodyne.jvnet.higherjaxb.ex001.model.Quantity"><path codeLine="85" d="M473.18,123.58 C413.2,143.36 331.88,170.01 260,193 C217.42,206.62 203.83,202.71 164,223 C148.49,230.9 132.81,241.78 119.5,252.08 " fill="none" id="org.patrodyne.jvnet.higherjaxb.ex001.model.Trade-to-org.patrodyne.jvnet.higherjaxb.ex001.model.Quantity" style="stroke:#181818;stroke-width:1.0;"/><polygon fill="#181818" points="115.45,255.25,125.0028,252.8532,119.3875,252.1685,120.0723,246.5532,115.45,255.25" style="stroke:#181818;stroke-width:1.0;"/><text fill="#000000" font-family="sans-serif" font-size="13" lengthAdjust="spacing" textLength="52" x="310" y="189.0669">quantity</text></g><!--MD5=[8de1acc0be2657e239be778b3217fb21]
link org.patrodyne.jvnet.higherjaxb.ex001.model.Trade to org.patrodyne.jvnet.higherjaxb.ex001.model.StopPrice--><g id="link_org.patrodyne.jvnet.higherjaxb.ex001.model.Trade_org.patrodyne.jvnet.higherjaxb.ex001.model.StopPrice"><path codeLine="86" d="M535.26,138.1 C514.87,172.63 486.87,220.05 468.61,250.97 " fill="none" id="org.patrodyne.jvnet.higherjaxb.ex001.model.Trade-to-org.patrodyne.jvnet.higherjaxb.ex001.model.StopPrice" style="stroke:#181818;stroke-width:1.0;"/><polygon fill="#181818" points="465.99,255.41,474.0142,249.6993,468.5351,251.1062,467.1281,245.6271,465.99,255.41" style="stroke:#181818;stroke-width:1.0;"/><text fill="#000000" font-family="sans-serif" font-size="13" lengthAdjust="spacing" textLength="59" x="513" y="189.0669">stopPrice</text></g><!--MD5=[fa14f0f8778ec9d145d4d00cd9e5bc3d]
link org.patrodyne.jvnet.higherjaxb.ex001.model.Transfer to org.patrodyne.jvnet.higherjaxb.ex001.model.Completed--><g id="link_org.patrodyne.jvnet.higherjaxb.ex001.model.Transfer_org.patrodyne.jvnet.higherjaxb.ex001.model.Completed"><path codeLine="87" d="M163.09,146.01 C169.43,161.58 177.2,178.41 186,193 C198.48,213.69 215.49,234.62 230.06,251.04 " fill="none" id="org.patrodyne.jvnet.higherjaxb.ex001.model.Transfer-to-org.patrodyne.jvnet.higherjaxb.ex001.model.Completed" style="stroke:#181818;stroke-width:1.0;"/><polygon fill="#181818" points="233.7,255.11,230.6903,245.7323,230.3702,251.3801,224.7224,251.0599,233.7,255.11" style="stroke:#181818;stroke-width:1.0;"/><text fill="#000000" font-family="sans-serif" font-size="13" lengthAdjust="spacing" textLength="68" x="187" y="189.0669">completed</text></g><!--MD5=[5c51d4b21756d2146814ab6cf90f2cbe]
link org.patrodyne.jvnet.higherjaxb.ex001.model.Transfer to org.patrodyne.jvnet.higherjaxb.ex001.model.Quantity--><g id="link_org.patrodyne.jvnet.higherjaxb.ex001.model.Transfer_org.patrodyne.jvnet.higherjaxb.ex001.model.Quantity"><path codeLine="88" d="M97.91,146.44 C91.8,155.72 86.46,165.72 83,176 C74.91,200.01 75.76,228.82 78.31,250.42 " fill="none" id="org.patrodyne.jvnet.higherjaxb.ex001.model.Transfer-to-org.patrodyne.jvnet.higherjaxb.ex001.model.Quantity" style="stroke:#181818;stroke-width:1.0;"/><polygon fill="#181818" points="78.95,255.47,81.7861,246.0383,78.321,250.5097,73.8496,247.0447,78.95,255.47" style="stroke:#181818;stroke-width:1.0;"/><text fill="#000000" font-family="sans-serif" font-size="13" lengthAdjust="spacing" textLength="52" x="84" y="189.0669">quantity</text></g><!--MD5=[452d41c2f8dabf0fdaea8569d1dbdde3]
@startuml

enum org.patrodyne.jvnet.higherjaxb.ex001.model.Action {
	{field} +BUY
	{field} +BUY_TO_COVER
	{field} +SELL
	{field} +SELL_SHORT
}


class org.patrodyne.jvnet.higherjaxb.ex001.model.Bind {
}


class org.patrodyne.jvnet.higherjaxb.ex001.model.Completed {
	{field} +value : XMLGregCal
}


enum org.patrodyne.jvnet.higherjaxb.ex001.model.Duration {
	{field} +DAY
	{field} +GOOD_TIL_CANCELED
	{field} +IMMEDIATE
}


class org.patrodyne.jvnet.higherjaxb.ex001.model.LimitPrice {
	{field} +value : BigDecimal
}


class org.patrodyne.jvnet.higherjaxb.ex001.model.ObjectFactory {
}


class org.patrodyne.jvnet.higherjaxb.ex001.model.Quantity {
	{field} +value : Integer
}


enum org.patrodyne.jvnet.higherjaxb.ex001.model.Stage {
	{field} +ACTIVE
	{field} +CANCELED
	{field} +CLOSED
	{field} +HOLD
	{field} +OPEN
}


class org.patrodyne.jvnet.higherjaxb.ex001.model.Stageable {
}


class org.patrodyne.jvnet.higherjaxb.ex001.model.StopPrice {
	{field} +value : BigDecimal
}


class org.patrodyne.jvnet.higherjaxb.ex001.model.Trade {
	{field} +account : Integer
	{field} +created : XMLGregCal
	{field} +symbol : String
}


class org.patrodyne.jvnet.higherjaxb.ex001.model.TransactionBatch {
	{field} #tradeOrTransfer : List
}


class org.patrodyne.jvnet.higherjaxb.ex001.model.Transfer {
	{field} +account : String
	{field} +created : XMLGregCal
	{field} +symbol : String
	{field} +toAccount : String
}




org.patrodyne.jvnet.higherjaxb.ex001.model.Stageable - ->  org.patrodyne.jvnet.higherjaxb.ex001.model.Stage : stage
org.patrodyne.jvnet.higherjaxb.ex001.model.Trade - ->  org.patrodyne.jvnet.higherjaxb.ex001.model.Action : action
org.patrodyne.jvnet.higherjaxb.ex001.model.Trade - ->  org.patrodyne.jvnet.higherjaxb.ex001.model.Completed : completed
org.patrodyne.jvnet.higherjaxb.ex001.model.Trade - ->  org.patrodyne.jvnet.higherjaxb.ex001.model.Duration : duration
org.patrodyne.jvnet.higherjaxb.ex001.model.Trade - ->  org.patrodyne.jvnet.higherjaxb.ex001.model.LimitPrice : limitPrice
org.patrodyne.jvnet.higherjaxb.ex001.model.Trade - ->  org.patrodyne.jvnet.higherjaxb.ex001.model.Quantity : quantity
org.patrodyne.jvnet.higherjaxb.ex001.model.Trade - ->  org.patrodyne.jvnet.higherjaxb.ex001.model.StopPrice : stopPrice
org.patrodyne.jvnet.higherjaxb.ex001.model.Transfer - ->  org.patrodyne.jvnet.higherjaxb.ex001.model.Completed : completed
org.patrodyne.jvnet.higherjaxb.ex001.model.Transfer - ->  org.patrodyne.jvnet.higherjaxb.ex001.model.Quantity : quantity

hide methods
hide org.patrodyne.jvnet.higherjaxb.ex001.model.Bind
hide org.patrodyne.jvnet.higherjaxb.ex001.model.ObjectFactory

@enduml

PlantUML version 1.2022.5(Sat Apr 30 06:55:52 EDT 2022)
(GPL source distribution)
Java Runtime: OpenJDK Runtime Environment
JVM: OpenJDK 64-Bit Server VM
Default Encoding: UTF-8
Language: en
Country: US
--></g></svg>